<?xml version="1.0" encoding="UTF-8"?>
<!DOCTYPE svg PUBLIC "-//W3C//DTD SVG 1.0//EN" "http://www.w3.org/TR/2001/REC-SVG-20010904/DTD/svg10.dtd">
<!-- Creator: CorelDRAW -->
<svg xmlns="http://www.w3.org/2000/svg" xml:space="preserve" width="26.822in" height="6.76726in" version="1.0" style="shape-rendering:geometricPrecision; text-rendering:geometricPrecision; image-rendering:optimizeQuality; fill-rule:evenodd; clip-rule:evenodd"
viewBox="0 0 21825.66 5506.66"
 xmlns:xlink="http://www.w3.org/1999/xlink"
 xmlns:xodm="http://www.corel.com/coreldraw/odm/2003">
 <defs>
  <style type="text/css">
   <![CDATA[
    .fil0 {fill:#A2D8B2;fill-rule:nonzero}
   ]]>
  </style>
 </defs>
 <g id="Layer_x0020_1">
  <metadata id="CorelCorpID_0Corel-Layer"/>
  <g id="_2181088251776">
   <path class="fil0" d="M678.13 2966.19c0,152.89 126.3,279.21 279.21,279.21l1844.14 0c152.91,0 279.21,-126.34 279.21,-279.21l0 -704.94 -2123.35 0c-152.86,0 -279.21,126.36 -279.21,279.21l0 425.73zm4155.01 83.6l0 -509.32c0,-152.89 -126.32,-279.21 -279.21,-279.21 -265.04,0 -530.08,0 -795.12,0l0 704.94c0,527.22 -430.13,957.34 -957.34,957.34l-1844.14 0c-527.21,0 -957.34,-430.11 -957.34,-957.34l0 -425.73c0,-527.2 430.14,-957.34 957.34,-957.34l2123.35 0 0 -625.79c0,-152.88 -126.34,-279.21 -279.21,-279.21l-1844.14 0c-152.85,0 -279.21,126.36 -279.21,279.21l0 472.64 -678.13 0 0 -472.64c0,-527.21 430.13,-957.33 957.34,-957.33l1844.14 0c527.21,0 957.34,430.11 957.34,957.33l0 625.79 795.12 0c527.22,0 957.34,430.13 957.34,957.34l0 509.32 -678.13 0zm-2402.56 1010.77l0 488.77c0,152.86 126.36,279.21 279.22,279.21l1844.13 0c152.89,0 279.21,-126.34 279.21,-279.21l0 -509.34 678.13 0 0 509.34c0,527.2 -430.09,957.34 -957.34,957.34l-1844.13 0c-527.21,0 -957.35,-430.16 -957.35,-957.34l0 -488.77 678.12 0z"/>
   <path class="fil0" d="M7102.7 3422.96c-126.05,0 -228.46,-98.48 -228.46,-228.46l0 -890.21c0,-126.05 102.41,-224.52 228.46,-224.52l850.82 0 0 1205.33c0,78.78 -63.02,137.86 -137.86,137.86l-712.96 0zm508.13 393.9l342.69 -291.49 0 291.49 452.98 0 0 -2134.93 -1425.92 0c-299.36,0 -559.33,248.16 -559.33,559.34l0 1016.25c0,299.37 248.16,559.34 559.33,559.34l630.24 0zm1296.91 -2899.09l0 2899.09 456.92 0 0 -2899.09 -456.92 0zm962.1 764.16l0 2134.93 456.93 0 0 -2134.93 -456.93 0zm0 -732.65l0 456.92 456.93 0 0 -456.92 -456.93 0zm1592.34 2406.72c-126.05,0 -228.46,-98.48 -228.46,-224.52l0 -827.19c0,-126.05 102.41,-224.52 228.46,-224.52l882.33 0 0 1142.3c0,78.78 -63.02,133.92 -137.86,133.92l-744.47 0zm779.92 1232.9c311.18,0 559.34,-256.03 559.34,-555.4l0 -2351.57 -1461.37 0c-299.36,0 -559.33,248.16 -559.33,559.34l0 953.23c0,299.36 248.16,559.33 559.33,559.33l661.75 0 342.69 -291.48 0 519.95c0,129.99 -98.47,228.46 -228.46,228.46l-555.4 0c-126.04,0 -228.46,-98.47 -228.46,-228.46l0 -66.97 -445.11 0 0 118.17c0,311.18 256.04,555.4 559.34,555.4l795.68 0zm1509.62 -2375.21c0,-78.78 63.02,-133.92 137.86,-133.92l760.22 0c126.05,0 224.52,98.47 224.52,224.52l0 1512.57 456.92 0 0 -1575.59c0,-311.18 -256.04,-559.34 -559.34,-559.34l-689.32 0 -330.87 279.67 0 -279.67 -452.98 0 0 2134.93 452.98 0 0 -1603.17zm3353.06 -141.8c126.05,0 216.65,90.6 216.65,216.64l0 256.03 -1091.1 0 0 -244.22c0,-129.99 98.47,-228.46 224.52,-228.46l649.93 0zm102.41 1744.97c303.3,0 559.34,-220.58 559.34,-531.76l0 -141.81 -445.11 0 0 55.15c0,129.98 -102.42,228.46 -228.46,228.46l-638.11 0c-126.05,0 -224.52,-98.48 -224.52,-228.46l0 -303.3 1536.21 0 0 -665.69c0,-303.3 -240.28,-547.52 -547.52,-547.52l-882.33 0c-307.24,0 -555.39,248.16 -555.39,559.34l0 1016.25c0,307.24 248.15,559.34 555.39,559.34l870.52 0zm1462.35 -1603.17c0,-78.78 63.02,-133.92 137.86,-133.92l866.58 0 0 -397.84 -673.57 0 -330.87 267.85 0 -267.85 -452.99 0 0 2134.93 452.99 0 0 -1603.17zm2439.22 -145.74c129.99,0 228.46,94.54 228.46,224.52l0 15.76 445.11 0 0 -70.9c0,-311.18 -256.03,-555.4 -559.33,-555.4l-850.82 0c-307.24,0 -547.52,240.28 -547.52,543.58l0 181.19c0,307.24 240.28,543.58 547.52,543.58l787.8 0c122.11,0 216.65,86.66 216.65,212.71l0 55.14c0,126.05 -82.72,212.71 -216.65,212.71l-661.75 0c-129.99,0 -228.46,-94.54 -228.46,-224.52l0 -11.82 -445.11 0 0 70.9c0,307.24 256.03,551.46 559.33,551.46l890.21 0c303.3,0 551.46,-240.28 551.46,-543.58l0 -173.32c0,-303.3 -248.16,-543.58 -551.46,-543.58l-787.79 0c-126.05,0 -216.65,-90.6 -216.65,-216.65l0 -59.08c0,-126.05 82.72,-212.71 216.65,-212.71l622.36 0z"/>
  </g>
 </g>
</svg>
