<?xml version="1.0" encoding="UTF-8"?>
<!DOCTYPE svg PUBLIC "-//W3C//DTD SVG 1.0//EN" "http://www.w3.org/TR/2001/REC-SVG-20010904/DTD/svg10.dtd">
<!-- Creator: CorelDRAW -->
<svg xmlns="http://www.w3.org/2000/svg" xml:space="preserve" width="12.8123in" height="3.92896in" version="1.0" style="shape-rendering:geometricPrecision; text-rendering:geometricPrecision; image-rendering:optimizeQuality; fill-rule:evenodd; clip-rule:evenodd"
viewBox="0 0 12810.66 3928.46"
 xmlns:xlink="http://www.w3.org/1999/xlink"
 xmlns:xodm="http://www.corel.com/coreldraw/odm/2003">
 <defs>
  <style type="text/css">
   <![CDATA[
    .fil0 {fill:#A2D8B2;fill-rule:nonzero}
   ]]>
  </style>
 </defs>
 <g id="Layer_x0020_1">
  <metadata id="CorelCorpID_0Corel-Layer"/>
  <path class="fil0" d="M483.78 2116.08c0,109.07 90.1,199.19 199.19,199.19l1315.61 0c109.09,0 199.19,-90.13 199.19,-199.19l0 -502.91 -1514.8 0c-109.05,0 -199.19,90.15 -199.19,199.19 0,101.24 0,202.48 0,303.72zm2964.19 59.63l0 -363.35c0,-109.07 -90.12,-199.19 -199.19,-199.19 -189.08,0 -378.16,0 -567.24,0l0 502.91c0,376.12 -306.85,682.96 -682.96,682.96l-1315.61 0c-376.11,0 -682.96,-306.84 -682.96,-682.96 0,-101.24 0,-202.48 0,-303.72 0,-376.11 306.86,-682.96 682.96,-682.96l1514.8 0 0 -446.44c0,-109.07 -90.13,-199.19 -199.19,-199.19l-1315.61 0c-109.04,0 -199.19,90.15 -199.19,199.19l0 337.18 -483.78 0 0 -337.18c0,-376.11 306.85,-682.97 682.96,-682.97l1315.61 0c376.11,0 682.96,306.85 682.96,682.97l0 446.44 567.24 0c376.12,0 682.97,306.85 682.97,682.96l0 363.35 -483.78 0zm-1713.99 721.09l0 348.69c0,109.05 90.15,199.19 199.2,199.19l1315.6 0c109.07,0 199.19,-90.13 199.19,-199.19l0 -363.36 483.78 0 0 363.36c0,376.11 -306.83,682.96 -682.97,682.96l-1315.6 0c-376.11,0 -682.98,-306.88 -682.98,-682.96l0 -348.69 483.78 0z"/>
  <path class="fil0" d="M5550.41 3422.08c129.71,0 239.19,-106.12 239.19,-239.2l0 -84.22 -193.72 0 0 57.26c0,55.6 -43.8,97.71 -97.7,97.71l-257.73 0c-53.9,0 -97.7,-42.11 -97.7,-97.71l0 -380.7c0,-53.9 43.8,-96.01 97.7,-96.01l257.73 0c53.9,0 97.7,42.11 97.7,96.01l0 58.96 193.72 0 0 -85.91c0,-133.08 -109.49,-239.2 -239.19,-239.2l-363.86 0c-133.08,0 -237.52,109.5 -237.52,239.2l0 434.6c0,133.08 109.49,239.2 237.52,239.2l363.86 0zm983.76 -746.24c53.9,0 92.65,38.74 92.65,92.65l0 109.49 -466.61 0 0 -104.44c0,-55.59 42.11,-97.71 96.02,-97.71l277.94 0zm43.8 746.24c129.71,0 239.2,-94.33 239.2,-227.4l0 -60.65 -190.35 0 0 23.58c0,55.59 -43.8,97.71 -97.7,97.71l-272.89 0c-53.91,0 -96.02,-42.12 -96.02,-97.71l0 -129.71 656.96 0 0 -284.68c0,-129.71 -102.75,-234.15 -234.15,-234.15l-377.32 0c-131.4,0 -237.52,106.12 -237.52,239.2l0 434.6c0,131.39 106.13,239.2 237.52,239.2l372.28 0zm631.69 -685.6c0,-33.69 26.96,-57.26 58.96,-57.26l370.6 0 0 -170.14 -288.06 0 -141.5 114.54 0 -114.54 -193.72 0 0 913.01 193.72 0 0 -685.6zm801.83 517.15c-53.9,0 -97.7,-42.11 -97.7,-97.71l0 -380.7c0,-53.9 43.8,-96.01 97.7,-96.01l363.86 0 0 515.46c0,33.69 -26.95,58.95 -58.95,58.95l-304.9 0zm217.3 168.45l146.55 -124.65 0 124.65 193.72 0 0 -913.01 -609.79 0c-128.02,0 -239.2,106.12 -239.2,239.2l0 434.6c0,128.03 106.13,239.2 239.2,239.2l269.52 0zm1335.81 -685.6c0,-33.69 26.95,-57.26 58.96,-57.26l232.46 0c53.91,0 96.02,42.11 96.02,96.01l0 646.86 195.4 0 0 -673.8c0,-133.08 -112.86,-239.2 -240.89,-239.2l-210.56 0 -148.24 129.71c-28.63,-77.49 -111.17,-129.71 -202.14,-129.71l-222.36 0 -141.49 124.65 0 -124.65 -193.72 0 0 913.01 193.72 0 0 -685.6c0,-33.69 26.95,-57.26 58.95,-57.26l254.37 0c45.47,0 75.8,30.32 75.8,75.8l0 667.07 193.72 0 0 -685.6zm815.31 -227.4l0 913.01 195.41 0 0 -913.01 -195.41 0zm0 -313.32l0 195.4 195.41 0 0 -195.4 -195.41 0zm997.24 1226.33c129.71,0 239.19,-106.12 239.19,-239.2l0 -84.22 -193.72 0 0 57.26c0,55.6 -43.8,97.71 -97.7,97.71l-257.73 0c-53.9,0 -97.7,-42.11 -97.7,-97.71l0 -380.7c0,-53.9 43.8,-96.01 97.7,-96.01l257.73 0c53.9,0 97.7,42.11 97.7,96.01l0 58.96 193.72 0 0 -85.91c0,-133.08 -109.49,-239.2 -239.19,-239.2l-363.86 0c-133.08,0 -237.52,109.5 -237.52,239.2l0 434.6c0,133.08 109.49,239.2 237.52,239.2l363.86 0zm968.59 -747.92c55.59,0 97.71,40.42 97.71,96.02l0 6.74 190.35 0 0 -30.32c0,-133.08 -109.5,-237.52 -239.21,-237.52l-363.86 0c-131.39,0 -234.15,102.75 -234.15,232.46l0 77.49c0,131.39 102.75,232.47 234.15,232.47l336.9 0c52.22,0 92.65,37.05 92.65,90.96l0 23.58c0,53.91 -35.38,90.96 -92.65,90.96l-283 0c-55.59,0 -97.7,-40.43 -97.7,-96.02l0 -5.05 -190.35 0 0 30.32c0,131.39 109.5,235.84 239.21,235.84l380.7 0c129.71,0 235.83,-102.75 235.83,-232.46l0 -74.12c0,-129.71 -106.12,-232.47 -235.83,-232.47l-336.9 0c-53.91,0 -92.65,-38.74 -92.65,-92.64l0 -25.27c0,-53.91 35.38,-90.96 92.65,-90.96l266.15 0zm-7105.29 -1096.42c-53.9,0 -97.7,-42.11 -97.7,-97.71l0 -380.7c0,-53.9 43.8,-96.01 97.7,-96.01l363.86 0 0 515.46c0,33.69 -26.95,58.96 -58.95,58.96l-304.9 0zm217.31 168.45l146.55 -124.65 0 124.65 193.72 0 0 -913.01 -609.79 0c-128.02,0 -239.2,106.12 -239.2,239.2l0 434.6c0,128.03 106.13,239.21 239.2,239.21l269.52 0zm1335.81 -685.6c0,-33.69 26.95,-57.27 58.96,-57.27l232.46 0c53.91,0 96.02,42.11 96.02,96.01l0 646.86 195.41 0 0 -673.8c0,-133.08 -112.86,-239.2 -240.89,-239.2l-210.56 0 -148.24 129.71c-28.63,-77.49 -111.17,-129.71 -202.14,-129.71l-222.36 0 -141.5 124.65 0 -124.65 -193.72 0 0 913.01 193.72 0 0 -685.6c0,-33.69 26.95,-57.27 58.95,-57.27l254.37 0c45.48,0 75.8,30.32 75.8,75.8l0 667.07 193.72 0 0 -685.6zm1007.34 -554.2l-193.72 0 0 1239.81 193.72 0 1.68 -124.65 144.86 124.65 289.74 0c133.07,0 240.89,-111.18 240.89,-239.21l0 -434.6c0,-133.08 -112.86,-239.2 -240.89,-239.2l-436.29 0 0 -326.8zm0 496.94l385.75 0c53.9,0 96.02,42.11 96.02,96.01l0 380.7c0,55.6 -42.12,97.71 -96.02,97.71l-326.8 0c-32,0 -58.95,-25.27 -58.95,-58.96l0 -515.46zm1069.66 57.27c0,-33.69 26.96,-57.27 58.96,-57.27l370.6 0 0 -170.14 -288.06 0 -141.5 114.54 0 -114.54 -193.72 0 0 913.01 193.72 0 0 -685.6zm562.63 -227.4l0 913.01 195.4 0 0 -913.01 -195.4 0zm0 -313.32l0 195.4 195.4 0 0 -195.4 -195.4 0zm1071.35 313.32l-436.29 0c-128.02,0 -239.2,106.12 -239.2,239.2l0 434.6c0,128.03 106.13,239.21 239.2,239.21l289.73 0 146.55 -124.65 0 124.65 195.4 0 0 -1239.81 -195.4 0 0 326.8zm-384.07 744.55c-53.9,0 -97.7,-42.11 -97.7,-97.71l0 -380.7c0,-53.9 43.8,-96.01 97.7,-96.01l384.07 0 0 515.46c0,33.69 -26.95,58.96 -58.95,58.96l-325.11 0zm1069.67 -28.63c-53.9,0 -97.7,-42.12 -97.7,-96.02l0 -353.75c0,-53.9 43.8,-96.01 97.7,-96.01l377.33 0 0 488.51c0,33.69 -26.95,57.28 -58.95,57.28l-318.38 0zm333.53 527.25c133.07,0 239.2,-109.5 239.2,-237.52l0 -1005.66 -624.96 0c-128.02,0 -239.2,106.12 -239.2,239.2l0 407.64c0,128.03 106.13,239.2 239.2,239.2l283 0 146.55 -124.65 0 222.36c0,55.59 -42.11,97.7 -97.7,97.7l-237.52 0c-53.9,0 -97.7,-42.11 -97.7,-97.7l0 -28.64 -190.35 0 0 50.54c0,133.07 109.49,237.52 239.2,237.52l340.27 0zm1003.98 -1076.41c53.9,0 92.64,38.74 92.64,92.65l0 109.5 -466.61 0 0 -104.44c0,-55.59 42.11,-97.71 96.02,-97.71l277.95 0zm43.8 746.24c129.71,0 239.19,-94.33 239.19,-227.41l0 -60.64 -190.35 0 0 23.58c0,55.59 -43.8,97.7 -97.7,97.7l-272.89 0c-53.91,0 -96.02,-42.12 -96.02,-97.7l0 -129.71 656.96 0 0 -284.68c0,-129.71 -102.75,-234.15 -234.15,-234.15l-377.33 0c-131.39,0 -237.52,106.12 -237.52,239.2l0 434.6c0,131.4 106.13,239.21 237.52,239.21l372.28 0z"/>
 </g>
</svg>
