<?xml version="1.0" encoding="UTF-8"?>
<!DOCTYPE svg PUBLIC "-//W3C//DTD SVG 1.0//EN" "http://www.w3.org/TR/2001/REC-SVG-20010904/DTD/svg10.dtd">
<!-- Creator: CorelDRAW -->
<svg xmlns="http://www.w3.org/2000/svg" xml:space="preserve" width="3.93224in" height="3.92896in" version="1.0" style="shape-rendering:geometricPrecision; text-rendering:geometricPrecision; image-rendering:optimizeQuality; fill-rule:evenodd; clip-rule:evenodd"
viewBox="0 0 1206.7 1205.69"
 xmlns:xlink="http://www.w3.org/1999/xlink"
 xmlns:xodm="http://www.corel.com/coreldraw/odm/2003">
 <defs>
  <style type="text/css">
   <![CDATA[
    .fil0 {fill:#A2D8B2;fill-rule:nonzero}
   ]]>
  </style>
 </defs>
 <g id="Layer_x0020_1">
  <metadata id="CorelCorpID_0Corel-Layer"/>
  <path class="fil0" d="M148.48 649.45c0,33.47 27.65,61.13 61.13,61.13l403.78 0c33.48,0 61.13,-27.66 61.13,-61.13l0 -154.35 -464.91 0c-33.47,0 -61.13,27.67 -61.13,61.13 0,31.07 0,62.14 0,93.21zm909.75 18.3l0 -111.52c0,-33.47 -27.66,-61.13 -61.13,-61.13 -58.03,0 -116.06,0 -174.09,0l0 154.35c0,115.44 -94.18,209.61 -209.61,209.61l-403.78 0c-115.43,0 -209.61,-94.17 -209.61,-209.61 0,-31.07 0,-62.14 0,-93.21 0,-115.43 94.18,-209.61 209.61,-209.61l464.91 0 0 -137.02c0,-33.48 -27.66,-61.13 -61.13,-61.13l-403.78 0c-33.47,0 -61.13,27.67 -61.13,61.13l0 103.48 -148.48 0 0 -103.48c0,-115.43 94.18,-209.61 209.61,-209.61l403.78 0c115.43,0 209.61,94.17 209.61,209.61l0 137.02 174.09 0c115.44,0 209.61,94.18 209.61,209.61l0 111.52 -148.48 0zm-526.04 221.31l0 107.02c0,33.47 27.67,61.13 61.14,61.13l403.77 0c33.48,0 61.13,-27.66 61.13,-61.13l0 -111.52 148.48 0 0 111.52c0,115.43 -94.17,209.61 -209.61,209.61l-403.77 0c-115.43,0 -209.61,-94.18 -209.61,-209.61l0 -107.02 148.48 0z"/>
 </g>
</svg>
